HIERARCHY
ROOT Hips
{
	OFFSET 0.000000 0.000000 0.000000
	CHANNELS 6 Xposition Yposition Zposition Zrotation Yrotation Xrotation 
	JOINT LowerBack
	{
		OFFSET 0.000000 0.000000 0.000000
		CHANNELS 3 Zrotation Yrotation Xrotation
		JOINT Spine
		{
			OFFSET 0.028270 2.035590 -0.193380
			CHANNELS 3 Zrotation Yrotation Xrotation
			JOINT Spine1
			{
				OFFSET 0.056720 2.048850 -0.042750
				CHANNELS 3 Zrotation Yrotation Xrotation
				JOINT Neck
				{
					OFFSET 0.000000 0.000000 0.000000
					CHANNELS 3 Zrotation Yrotation Xrotation
					JOINT Neck1
					{
						OFFSET -0.054170 1.746240 0.172020
						CHANNELS 3 Zrotation Yrotation Xrotation
						JOINT Head
						{
							OFFSET 0.104070 1.761360 -0.123970
							CHANNELS 3 Zrotation Yrotation Xrotation
							End Site
							{
								OFFSET 0.000000 0.000000 0.000000
							}
						}
					}
				}
				JOINT LeftShoulder
				{
					OFFSET 0.000000 0.000000 0.000000
					CHANNELS 3 Zrotation Yrotation Xrotation
					JOINT LeftArm
					{
						OFFSET 3.362410 1.200890 -0.311210
						CHANNELS 3 Zrotation Yrotation Xrotation
						JOINT LeftForeArm
						{
							OFFSET 4.983000 -0.000000 -0.000000
							CHANNELS 3 Zrotation Yrotation Xrotation
							JOINT LeftHand
							{
								OFFSET 3.483560 -0.000000 -0.000000
								CHANNELS 3 Zrotation Yrotation Xrotation
								JOINT LeftFingerBase
								{
									OFFSET 0.000000 0.000000 0.000000
									CHANNELS 3 Zrotation Yrotation Xrotation
									JOINT LeftHandIndex1
									{
										OFFSET 0.715260 -0.000000 -0.000000
										CHANNELS 3 Zrotation Yrotation Xrotation
										End Site
										{
											OFFSET 0.000000 0.000000 0.000000
										}
									}
								}
								JOINT LThumb
								{
									OFFSET 0.000000 0.000000 0.000000
									CHANNELS 3 Zrotation Yrotation Xrotation
									End Site
									{
										OFFSET 0.000000 0.000000 0.000000
									}
								}
							}
						}
					}
				}
				JOINT RightShoulder
				{
					OFFSET 0.000000 0.000000 0.000000
					CHANNELS 3 Zrotation Yrotation Xrotation
					JOINT RightArm
					{
						OFFSET -3.136600 1.374050 -0.404650
						CHANNELS 3 Zrotation Yrotation Xrotation
						JOINT RightForeArm
						{
							OFFSET -5.241900 -0.000000 -0.000000
							CHANNELS 3 Zrotation Yrotation Xrotation
							JOINT RightHand
							{
								OFFSET -3.444170 -0.000000 -0.000000
								CHANNELS 3 Zrotation Yrotation Xrotation
								JOINT RightFingerBase
								{
									OFFSET 0.000000 0.000000 0.000000
									CHANNELS 3 Zrotation Yrotation Xrotation
									JOINT RightHandIndex1
									{
										OFFSET -0.622530 -0.000000 -0.000000
										CHANNELS 3 Zrotation Yrotation Xrotation
										End Site
										{
											OFFSET 0.000000 0.000000 0.000000
										}
									}
								}
								JOINT RThumb
								{
									OFFSET 0.000000 0.000000 0.000000
									CHANNELS 3 Zrotation Yrotation Xrotation
									End Site
									{
										OFFSET 0.000000 0.000000 0.000000
									}
								}
							}
						}
					}
				}
			}
		}
	}
}
}
MOTION
Frames: 12
Frame Time: 0.008333
-20.411996 15.819189 -1.687392 -85.564779 85.726272 -55.943779 -6.287810 0.009616 -0.333790 -2.045615 0.310051 -2.916602 -5.308734 0.209917 1.272176 8.869631 -4.718962 -7.122306 -2.528252 -0.189762 -0.072081 0.000000 0.000000 0.000000 -7.957226 8.772004 2.608463 -60.527164 21.235815 13.169179 -4.421690 -26.352310 -0.026955 -14.708924 1.851775 -0.250473 -0.068500 -0.094629 -0.000000 0.000000 0.000000 0.000000 0.000000 0.000000 0.000000 11.687317 -0.945732 3.113974 36.249805 25.489766 20.466793 1.370988 69.857679 0.045255 13.355367 9.109708 1.110324 -0.109826 -0.272971 -0.000000 0.000000 0.000000 0.000000 0.000000 0.000000 0.000000 
-20.191825 15.850027 -1.731640 -72.437051 85.353777 -43.111454 -6.706287 0.171434 -0.238036 -2.150824 0.490481 -2.914435 -5.373516 0.390085 1.243140 9.033407 -4.705720 -7.043199 -2.548837 -0.192067 -0.051076 0.000000 0.000000 0.000000 -7.925758 8.564954 2.591720 -60.627238 20.797036 12.798315 -4.452900 -25.554808 -0.027215 -14.737169 2.129502 -0.286584 -0.070216 -0.093851 -0.000000 0.000000 0.000000 0.000000 0.000000 0.000000 0.000000 11.897262 -0.873000 3.121059 36.667372 25.082872 20.875200 1.373187 69.968388 0.045521 13.485075 9.066029 1.115725 -0.110313 -0.271470 -0.000000 0.000000 0.000000 0.000000 0.000000 0.000000 0.000000 
-19.974306 15.886317 -1.774736 -62.723867 85.116552 -33.664515 -7.204647 0.236636 -0.122961 -2.263359 0.578421 -2.902957 -5.429214 0.477493 1.217728 9.185947 -4.681227 -6.942990 -2.575956 -0.195059 -0.024923 0.000000 0.000000 0.000000 -7.865533 8.274981 2.589540 -60.719321 20.248446 12.454225 -4.485577 -24.760611 -0.027194 -14.730611 2.404688 -0.321585 -0.072525 -0.092109 -0.000000 0.000000 0.000000 0.000000 0.000000 0.000000 0.000000 12.122313 -0.849966 3.109097 37.169546 24.668185 21.291454 1.379950 69.983450 0.045563 13.594064 9.036096 1.120928 -0.110434 -0.269316 -0.000000 0.000000 0.000000 0.000000 0.000000 0.000000 0.000000 
-19.759424 15.927737 -1.816511 -55.934172 85.005135 -27.110275 -7.648823 0.220000 0.011760 -2.359616 0.582225 -2.882139 -5.483071 0.481170 1.198123 9.325301 -4.651348 -6.826229 -2.609433 -0.198699 0.005311 0.000000 0.000000 0.000000 -7.779101 7.921647 2.599185 -60.797890 19.585442 12.147462 -4.516477 -23.987675 -0.026858 -14.687689 2.666302 -0.353777 -0.075158 -0.089339 -0.000000 0.000000 0.000000 0.000000 0.000000 0.000000 0.000000 12.357927 -0.874868 3.078696 37.750133 24.250198 21.713670 1.391558 69.901408 0.045355 13.681856 9.018926 1.125728 -0.110166 -0.266390 -0.000000 0.000000 0.000000 0.000000 0.000000 0.000000 0.000000 
-19.547225 15.974073 -1.856904 -51.588975 84.986114 -22.972309 -7.962219 0.147630 0.160523 -2.427186 0.524351 -2.854914 -5.540540 0.423792 1.181886 9.448493 -4.616399 -6.694926 -2.648353 -0.202913 0.039415 0.000000 0.000000 0.000000 -7.676040 7.516929 2.616515 -60.852800 18.825705 11.877950 -4.543215 -23.268846 -0.026234 -14.610190 2.904901 -0.381859 -0.077899 -0.085684 -0.000000 0.000000 0.000000 0.000000 0.000000 0.000000 0.000000 12.594101 -0.933112 3.033105 38.413050 23.821864 22.134026 1.408734 69.720152 0.044927 13.752673 9.010921 1.130030 -0.109490 -0.262689 -0.000000 0.000000 0.000000 0.000000 0.000000 0.000000 0.000000 
-19.337453 16.025228 -1.895648 -49.030337 85.030311 -20.595762 -8.141389 0.042126 0.315623 -2.467221 0.427230 -2.823543 -5.603379 0.327746 1.170345 9.558073 -4.582918 -6.556412 -2.691751 -0.207521 0.075496 0.000000 0.000000 0.000000 -7.556794 7.090337 2.638043 -60.873989 17.961404 11.655698 -4.565007 -22.622677 -0.025347 -14.501104 3.111067 -0.404434 -0.080635 -0.081268 -0.000000 0.000000 0.000000 0.000000 0.000000 0.000000 0.000000 12.830719 -1.017696 2.975145 39.157030 23.386950 22.547154 1.431922 69.435486 0.044315 13.805174 9.008578 1.133430 -0.108343 -0.258315 -0.000000 0.000000 0.000000 0.000000 0.000000 0.000000 0.000000 
-19.130113 16.081203 -1.932572 -47.916358 85.116841 -19.638251 -8.192942 -0.082593 0.469760 -2.482073 0.305086 -2.790715 -5.672278 0.207057 1.161432 9.654603 -4.551358 -6.415274 -2.738374 -0.212363 0.112393 0.000000 0.000000 0.000000 -7.425653 6.655041 2.662516 -60.849992 17.000335 11.481954 -4.582084 -22.074539 -0.024232 -14.366104 3.276976 -0.420600 -0.083337 -0.076216 -0.000000 0.000000 0.000000 0.000000 0.000000 0.000000 0.000000 13.062171 -1.119135 2.906893 39.989883 22.933273 22.938287 1.461613 69.044739 0.043568 13.843751 9.006532 1.135632 -0.106731 -0.253333 -0.000000 0.000000 0.000000 0.000000 0.000000 0.000000 0.000000 
-18.924421 16.142010 -1.967459 -47.987200 85.232939 -19.838290 -8.134789 -0.218564 0.616641 -2.475984 0.166695 -2.758291 -5.747645 0.070318 1.154363 9.742287 -4.525624 -6.277798 -2.787778 -0.217314 0.148364 0.000000 0.000000 0.000000 -7.284474 6.223331 2.689560 -60.770713 15.947052 11.355106 -4.595359 -21.646708 -0.022924 -14.213809 3.399323 -0.430461 -0.086026 -0.070634 -0.000000 0.000000 0.000000 0.000000 0.000000 0.000000 0.000000 13.292269 -1.234853 2.830476 40.908989 22.455496 23.295889 1.497863 68.547509 0.042720 13.865466 9.000573 1.135838 -0.104592 -0.247848 -0.000000 0.000000 0.000000 0.000000 0.000000 0.000000 0.000000 
-18.720358 16.207643 -2.000193 -49.277334 85.367431 -21.226305 -7.969077 -0.361532 0.751713 -2.449849 0.016369 -2.727891 -5.829845 -0.078314 1.147196 9.822176 -4.505928 -6.148417 -2.839087 -0.222250 0.182193 0.000000 0.000000 0.000000 -7.137603 5.801073 2.719953 -60.627497 14.810232 11.271483 -4.605921 -21.359156 -0.021454 -14.053751 3.474940 -0.433911 -0.088735 -0.064592 -0.000000 0.000000 0.000000 0.000000 0.000000 0.000000 0.000000 13.518011 -1.360407 2.747103 41.916826 21.940451 23.602286 1.540760 67.943021 0.041801 13.871802 8.986150 1.133645 -0.101938 -0.241914 -0.000000 0.000000 0.000000 0.000000 0.000000 0.000000 0.000000 
-18.517679 16.277954 -2.030729 -51.877676 85.514539 -23.890485 -7.701544 -0.510861 0.872439 -2.405044 -0.145055 -2.700412 -5.919166 -0.238123 1.138392 9.896455 -4.492562 -6.031110 -2.891762 -0.227080 0.212740 0.000000 0.000000 0.000000 -6.987752 5.391633 2.755070 -60.415132 13.598928 11.226694 -4.615071 -21.227711 -0.019842 -13.896667 3.502971 -0.431458 -0.091503 -0.058143 -0.000000 0.000000 0.000000 0.000000 0.000000 0.000000 0.000000 13.739702 -1.493676 2.657739 43.011071 21.378690 23.839426 1.590035 67.232215 0.040832 13.862234 8.960280 1.128557 -0.098800 -0.235613 -0.000000 0.000000 0.000000 0.000000 0.000000 0.000000 0.000000 
-18.315714 16.352659 -2.059051 -55.903593 85.673983 -27.944300 -7.343736 -0.669330 0.978502 -2.343796 -0.319901 -2.675986 -6.015741 -0.411507 1.126765 9.968542 -4.488555 -5.928883 -2.945920 -0.231779 0.239096 0.000000 0.000000 0.000000 -6.837665 4.989726 2.796357 -60.129559 12.330836 11.209050 -4.624125 -21.270352 -0.018128 -13.754600 3.487731 -0.424197 -0.094376 -0.051372 -0.000000 0.000000 0.000000 0.000000 0.000000 0.000000 0.000000 13.963595 -1.638282 2.564211 44.178495 20.769188 23.995785 1.645113 66.417847 0.039822 13.830684 8.922553 1.120270 -0.095150 -0.229051 -0.000000 0.000000 0.000000 0.000000 0.000000 0.000000 0.000000 
-18.114588 16.431248 -2.085254 -61.510844 85.847798 -33.544044 -6.911658 -0.842393 1.071771 -2.268497 -0.512937 -2.654057 -6.117691 -0.603288 1.111428 10.036892 -4.485362 -5.842714 -3.000162 -0.236227 0.260881 0.000000 0.000000 0.000000 -6.686374 4.604106 2.846924 -59.772036 11.000903 11.224345 -4.634876 -21.482423 -0.016295 -13.636111 3.427571 -0.412329 -0.097418 -0.044230 -0.000000 0.000000 0.000000 0.000000 0.000000 0.000000 0.000000 14.180769 -1.786127 2.464596 45.422643 20.094219 24.044549 1.704759 65.504418 0.038771 13.784487 8.870826 1.109084 -0.091254 -0.222282 -0.000000 0.000000 0.000000 0.000000 0.000000 0.000000 0.000000 
